<?xml version="1.0" encoding="utf-8"?>
<svg width="1192px" height="300px" viewBox="0 0 1192 300" version="1.1" xmlns:xlink="http://www.w3.org/1999/xlink" xmlns="http://www.w3.org/2000/svg">
  <defs>
    <path d="M1012 0L1072 0L1072 156L1012 156L1012 0Z" id="path_1" />
    <path d="M1132 49L1192 49L1192 264L1132 264L1132 49Z" id="path_2" />
    <path d="M1042 192L1102 192L1102 300L1042 300L1042 192Z" id="path_3" />
    <clipPath id="clip_1">
      <use xlink:href="#path_1" />
    </clipPath>
    <clipPath id="clip_2">
      <use xlink:href="#path_2" />
    </clipPath>
    <clipPath id="clip_3">
      <use xlink:href="#path_3" />
    </clipPath>
  </defs>
  <g id="Rectangle">
    <use stroke="none" fill="#0277BD" xlink:href="#path_1" fill-rule="evenodd" />
    <g clip-path="url(#clip_1)">
      <use xlink:href="#path_1" fill="none" stroke="#90A4AE" stroke-width="6" />
    </g>
  </g>
  <g id="Rectangle-3">
    <use stroke="none" fill="#0277BD" xlink:href="#path_2" fill-rule="evenodd" />
    <g clip-path="url(#clip_2)">
      <use xlink:href="#path_2" fill="none" stroke="#90A4AE" stroke-width="6" />
    </g>
  </g>
  <g id="Rectangle-4">
    <use stroke="none" fill="#0277BD" xlink:href="#path_3" fill-rule="evenodd" />
    <g clip-path="url(#clip_3)">
      <use xlink:href="#path_3" fill="none" stroke="#90A4AE" stroke-width="6" />
    </g>
  </g>
  <g stroke="#90A4AE" stroke-width="1" id="dewhurst" fill="#0277BD" transform="translate(0 4.9999847)">
    <path d="M35.7178 207.897Q47.2119 215.524 62.1973 215.524Q73.7451 215.524 80.6738 211.657Q87.6562 207.79 91.416 202.849Q95.1758 197.854 97.1631 194.577L99.3652 194.577L99.3652 213L117.197 213L117.197 52.9951L98.7744 52.9951L98.7744 112.077L97.1631 112.077Q95.1758 108.962 91.5234 104.074Q87.8711 99.1865 81.0498 95.3193Q74.2285 91.4521 62.5195 91.4521Q47.3193 91.4521 35.7715 99.0254Q24.2236 106.599 17.7246 120.51Q11.2256 134.421 11.2256 153.327Q11.2256 172.395 17.7246 186.359Q24.2236 200.271 35.7178 207.897ZM478.726 213L478.726 140.812Q478.726 125.129 487.695 116.589Q496.665 107.995 510.308 107.995Q523.359 107.995 530.718 115.837Q538.13 123.679 538.13 138.02L538.13 213L556.553 213L556.553 136.73Q556.553 113.635 545.273 102.57Q534.048 91.4521 515.625 91.4521Q501.499 91.4521 493.013 96.9844Q484.526 102.463 480.337 111.755L478.726 111.755L478.726 52.9951L460.303 52.9951L460.303 213L478.726 213ZM967.197 108.64L967.197 93.0098L941.577 93.0098L941.577 64.2744L923.101 64.2744L923.101 93.0098L905 93.0098L905 108.64L923.101 108.64L923.101 183.62Q923.101 194.094 927.988 200.969Q932.876 207.844 940.342 211.228Q947.808 214.558 955.649 214.558Q960.806 214.558 964.136 213.806Q967.52 213.054 969.399 212.355L965.64 195.812Q964.458 196.027 962.471 196.403Q960.537 196.726 957.476 196.726Q953.447 196.726 949.795 195.437Q946.196 194.147 943.887 190.28Q941.577 186.413 941.577 178.625L941.577 108.64L967.197 108.64ZM735.947 93.0098L718.115 93.0098L718.115 213L736.538 213L736.538 137.053Q736.538 124.86 745.132 116.911Q753.726 108.962 766.885 108.962Q770.537 108.962 773.867 109.445Q777.197 109.929 778.11 110.197L778.11 91.4521Q776.553 91.291 773.491 91.2373Q770.483 91.1299 768.442 91.1299Q757.646 91.1299 749.053 96.6621Q740.459 102.194 737.183 111.11L735.947 111.11L735.947 93.0098ZM173.838 207.844Q186.406 215.524 203.755 215.524Q222.017 215.524 234.692 207.146Q247.368 198.767 251.558 185.178L233.726 180.183Q230.234 189.582 222.393 194.255Q214.604 198.928 203.755 198.928Q187.48 198.928 177.222 188.723Q166.963 178.464 166.318 159.235L253.438 159.235L253.438 151.447Q253.438 134.636 248.979 123.142Q244.521 111.647 237.002 104.665Q229.536 97.6826 220.405 94.5674Q211.274 91.4521 201.875 91.4521Q185.601 91.4521 173.462 99.4014Q161.323 107.297 154.556 121.423Q147.788 135.495 147.788 153.918Q147.788 172.395 154.556 186.252Q161.323 200.109 173.838 207.844ZM885.015 119.865L868.418 124.538Q866.001 118.308 860.308 112.829Q854.614 107.351 842.476 107.351Q831.465 107.351 824.16 112.399Q816.855 117.448 816.855 125.183Q816.855 132.058 821.851 136.032Q826.899 140.007 837.48 142.692L855.312 147.043Q887.163 154.885 887.163 179.538Q887.163 189.851 881.255 198.015Q875.4 206.125 864.819 210.852Q854.292 215.524 840.327 215.524Q821.958 215.524 809.927 207.575Q797.896 199.572 794.673 184.265L812.183 179.86Q817.124 199.25 840.005 199.25Q852.896 199.25 860.522 193.771Q868.149 188.239 868.149 180.505Q868.149 167.775 850.317 163.64L830.337 158.913Q813.848 155.046 806.113 146.828Q798.433 138.557 798.433 126.149Q798.433 115.944 804.18 108.156Q809.927 100.368 819.863 95.9102Q829.854 91.4521 842.476 91.4521Q860.308 91.4521 870.513 99.2939Q880.718 107.082 885.015 119.865ZM272.207 93.0098L291.543 93.0098L317.485 184.855L318.774 184.855L344.395 93.0098L364.053 93.0098L389.351 184.587L390.64 184.587L416.582 93.0098L435.918 93.0098L399.395 213L381.24 213L354.976 120.832L353.149 120.832L326.885 213L308.73 213L272.207 93.0098ZM665.928 163.962L665.928 93.0098L684.351 93.0098L684.351 213L665.928 213L665.928 192.697L664.692 192.697Q660.449 201.828 651.533 208.22Q642.671 214.558 629.082 214.558Q612.163 214.558 601.206 203.386Q590.303 192.214 590.303 169.226L590.303 93.0098L608.726 93.0098L608.726 167.99Q608.726 181.149 616.084 188.938Q623.496 196.726 634.99 196.726Q641.865 196.726 649.009 193.234Q656.152 189.743 661.04 182.492Q665.928 175.188 665.928 163.962ZM90.1807 186.198Q81.3184 198.928 64.668 198.928Q53.1201 198.928 45.332 192.805Q37.5977 186.682 33.623 176.262Q29.7021 165.788 29.7021 153.005Q29.7021 140.329 33.5693 130.178Q37.4365 119.973 45.1709 114.011Q52.959 107.995 64.668 107.995Q81.5869 107.995 90.2881 120.456Q99.043 132.863 99.043 153.005Q99.043 173.415 90.1807 186.198ZM234.692 143.337L166.318 143.337Q166.963 133.991 171.421 125.935Q175.879 117.824 183.613 112.937Q191.348 107.995 201.875 107.995Q216.86 107.995 225.776 118.039Q234.692 128.083 234.692 143.337Z" />
  </g>
  <g stroke="#90A4AE" stroke-width="1" id="strategic-advisory" fill="#0277BD" transform="translate(499.00003 239)">
    <path d="M174.862 16.8581Q173.629 16.8581 172.75 16.028Q171.871 15.1979 171.871 14.0261Q171.871 12.8542 172.75 12.0241Q173.629 11.1818 174.862 11.1818Q176.083 11.1818 176.962 12.0241Q177.84 12.8542 177.84 14.0261Q177.84 15.1979 176.962 16.028Q176.083 16.8581 174.862 16.8581ZM313.66 16.028Q314.539 16.8581 315.771 16.8581Q316.992 16.8581 317.871 16.028Q318.75 15.1979 318.75 14.0261Q318.75 12.8542 317.871 12.0241Q316.992 11.1818 315.771 11.1818Q314.539 11.1818 313.66 12.0241Q312.781 12.8542 312.781 14.0261Q312.781 15.1979 313.66 16.028ZM259.042 47.5221Q261.654 49.2555 265.06 49.2555Q267.684 49.2555 269.259 48.3766Q270.846 47.4977 271.701 46.3747Q272.555 45.2394 273.007 44.4948L273.507 44.4948L273.507 48.6818L277.56 48.6818L277.56 12.3171L273.373 12.3171L273.373 25.7448L273.007 25.7448Q272.555 25.0368 271.725 23.926Q270.895 22.8151 269.345 21.9362Q267.794 21.0573 265.133 21.0573Q261.679 21.0573 259.054 22.7785Q256.43 24.4997 254.953 27.6613Q253.475 30.8229 253.475 35.1198Q253.475 39.4533 254.953 42.6271Q256.43 45.7887 259.042 47.5221ZM41.8347 21.4113L41.8347 24.9636L36.0119 24.9636L36.0119 40.8693Q36.0119 42.6393 36.5368 43.5182Q37.0618 44.3971 37.8796 44.6901Q38.7097 44.9831 39.6252 44.9831Q40.321 44.9831 40.7605 44.9098Q41.2121 44.8244 41.4807 44.7756L42.3352 48.5353Q41.9079 48.694 41.1389 48.8649Q40.3821 49.0358 39.2102 49.0358Q37.428 49.0358 35.7312 48.279Q34.0344 47.5099 32.9236 45.9474Q31.8127 44.3849 31.8127 42.0046L31.8127 24.9636L27.699 24.9636L27.699 21.4113L31.8127 21.4113L31.8127 14.8805L36.0119 14.8805L36.0119 21.4113L41.8347 21.4113ZM106.821 24.9636L106.821 21.4113L100.998 21.4113L100.998 14.8805L96.7988 14.8805L96.7988 21.4113L92.685 21.4113L92.685 24.9636L96.7988 24.9636L96.7988 42.0046Q96.7988 44.3849 97.9096 45.9474Q99.0204 47.5099 100.717 48.279Q102.414 49.0358 104.196 49.0358Q105.368 49.0358 106.125 48.8649Q106.894 48.694 107.321 48.5353L106.467 44.7756Q106.198 44.8244 105.747 44.9098Q105.307 44.9831 104.611 44.9831Q103.696 44.9831 102.866 44.6901Q102.048 44.3971 101.523 43.5182Q100.998 42.6393 100.998 40.8693L100.998 24.9636L106.821 24.9636ZM48.1514 21.4113L48.1514 48.6818L52.3384 48.6818L52.3384 31.4211Q52.3384 28.6501 54.2915 26.8434Q56.2446 25.0368 59.2353 25.0368Q60.0654 25.0368 60.8223 25.1467Q61.5791 25.2565 61.7866 25.3176L61.7866 21.0573Q61.4326 21.0207 60.7368 21.0085Q60.0532 20.9841 59.5893 20.9841Q57.1357 20.9841 55.1826 22.2414Q53.2295 23.4987 52.4848 25.5251L52.2041 25.5251L52.2041 21.4113L48.1514 21.4113ZM381.462 21.4113L385.515 21.4113L385.515 25.5251L385.796 25.5251Q386.54 23.4987 388.493 22.2414Q390.447 20.9841 392.9 20.9841Q393.364 20.9841 394.048 21.0085Q394.743 21.0207 395.097 21.0573L395.097 25.3176Q394.89 25.2565 394.133 25.1467Q393.376 25.0368 392.546 25.0368Q389.555 25.0368 387.602 26.8434Q385.649 28.6501 385.649 31.4211L385.649 48.6818L381.462 48.6818L381.462 21.4113ZM23.1567 27.5148L19.3848 28.5768Q18.8354 27.1608 17.5415 25.9157Q16.2476 24.6706 13.4888 24.6706Q10.9863 24.6706 9.32617 25.818Q7.66602 26.9655 7.66602 28.7233Q7.66602 30.2858 8.80127 31.1891Q9.94873 32.0925 12.3535 32.7028L16.4062 33.6916Q23.645 35.4738 23.645 41.0768Q23.645 43.4206 22.3022 45.2761Q20.9717 47.1193 18.5669 48.1935Q16.1743 49.2555 13.0005 49.2555Q8.82568 49.2555 6.09131 47.4489Q3.35693 45.6301 2.62451 42.1511L6.604 41.1501Q7.72705 45.5568 12.9272 45.5568Q15.8569 45.5568 17.5903 44.3117Q19.3237 43.0544 19.3237 41.2966Q19.3237 38.4035 15.271 37.4636L10.73 36.3893Q6.98242 35.5104 5.22461 33.6428Q3.479 31.7629 3.479 28.943Q3.479 26.6237 4.78516 24.8537Q6.09131 23.0837 8.34961 22.0705Q10.6201 21.0573 13.4888 21.0573Q17.5415 21.0573 19.8608 22.8395Q22.1802 24.6096 23.1567 27.5148ZM74.7916 49.3166Q72.1915 49.3166 70.0797 48.34Q67.9679 47.3512 66.7227 45.4836Q65.4776 43.6037 65.4776 40.9426Q65.4776 38.5988 66.4054 37.134Q67.3331 35.6691 68.8712 34.839Q70.4215 33.9968 72.2892 33.5817Q74.169 33.1667 76.0611 32.9103Q78.5514 32.5929 80.1017 32.4343Q81.6642 32.2634 82.3722 31.8605Q83.0924 31.4455 83.0924 30.4323L83.0924 30.2858Q83.0924 27.6613 81.6642 26.2087Q80.2359 24.7438 77.3429 24.7438Q74.3399 24.7438 72.631 26.0622Q70.9342 27.3805 70.2384 28.8698L66.2589 27.4416Q67.3331 24.9636 69.1153 23.572Q70.8976 22.1681 73.0216 21.6188Q75.1456 21.0573 77.1964 21.0573Q78.5147 21.0573 80.2237 21.3747Q81.9449 21.6799 83.544 22.6442Q85.1554 23.5964 86.2174 25.5373Q87.2916 27.466 87.2916 30.7131L87.2916 48.6818L83.0924 48.6818L83.0924 44.9831L82.8849 44.9831Q82.4576 45.8742 81.4566 46.8874Q80.4679 47.9006 78.8199 48.6086Q77.172 49.3166 74.7916 49.3166ZM124.575 49.2555Q120.632 49.2555 117.776 47.5099Q114.932 45.7521 113.394 42.6027Q111.856 39.4533 111.856 35.2541Q111.856 31.0671 113.394 27.8688Q114.932 24.6584 117.691 22.8639Q120.449 21.0573 124.148 21.0573Q126.284 21.0573 128.36 21.7653Q130.435 22.4733 132.132 24.0602Q133.84 25.6471 134.854 28.2595Q135.867 30.8718 135.867 34.6926L135.867 36.4626L116.067 36.4626Q116.214 40.8327 118.545 43.1642Q120.877 45.4836 124.575 45.4836Q127.041 45.4836 128.811 44.4216Q130.593 43.3596 131.387 41.2233L135.44 42.3586Q134.487 45.447 131.607 47.3512Q128.726 49.2555 124.575 49.2555ZM146.041 57.8127Q148.702 59.4728 153.268 59.4728Q156.539 59.4728 159.2 58.4352Q161.874 57.3976 163.46 55.1882Q165.06 52.9787 165.06 49.4631L165.06 21.4113L161.007 21.4113L161.007 25.7448L160.58 25.7448Q160.116 25.0368 159.273 23.926Q158.431 22.8151 156.856 21.9362Q155.294 21.0573 152.633 21.0573Q149.178 21.0573 146.554 22.7663Q143.929 24.4753 142.452 27.6003Q140.975 30.7131 140.975 34.9001Q140.975 39.1603 142.489 42.1511Q144.015 45.1296 146.627 46.6921Q149.251 48.2546 152.56 48.2546Q155.221 48.2546 156.783 47.4123Q158.358 46.57 159.2 45.4836Q160.055 44.3849 160.506 43.6403L160.873 43.6403L160.873 49.1823Q160.873 52.5881 158.724 54.1872Q156.576 55.7863 153.268 55.7863Q150.802 55.7863 149.276 55.0661Q147.762 54.3459 146.895 53.3693Q146.029 52.405 145.455 51.6603L142.123 54.0041Q143.392 56.1525 146.041 57.8127ZM189.066 47.4489Q191.837 49.2555 195.67 49.2555Q198.686 49.2555 200.968 48.1325Q203.251 46.9972 204.643 45.0685Q206.034 43.1398 206.388 40.7228L202.201 40.7228Q201.615 42.9689 199.87 44.2262Q198.124 45.4836 195.67 45.4836Q191.935 45.4836 189.713 42.6393Q187.504 39.7829 187.504 35.0466Q187.504 30.4079 189.75 27.6125Q191.996 24.8171 195.67 24.8171Q198.441 24.8171 200.077 26.2697Q201.725 27.7101 202.201 29.5778L206.388 29.5778Q206.034 27.0143 204.557 25.0978Q203.092 23.1813 200.785 22.1193Q198.478 21.0573 195.597 21.0573Q191.899 21.0573 189.14 22.8639Q186.381 24.6584 184.843 27.8444Q183.305 31.0304 183.305 35.193Q183.305 39.2702 184.794 42.4562Q186.295 45.6301 189.066 47.4489ZM234.593 49.3166Q231.993 49.3166 229.881 48.34Q227.77 47.3512 226.524 45.4836Q225.279 43.6037 225.279 40.9426Q225.279 38.5988 226.207 37.134Q227.135 35.6691 228.673 34.839Q230.223 33.9968 232.091 33.5817Q233.971 33.1667 235.863 32.9103Q238.353 32.5929 239.903 32.4343Q241.466 32.2634 242.174 31.8605Q242.894 31.4455 242.894 30.4323L242.894 30.2858Q242.894 27.6613 241.466 26.2087Q240.038 24.7438 237.145 24.7438Q234.142 24.7438 232.433 26.0622Q230.736 27.3805 230.04 28.8698L226.061 27.4416Q227.135 24.9636 228.917 23.572Q230.699 22.1681 232.823 21.6188Q234.947 21.0573 236.998 21.0573Q238.316 21.0573 240.025 21.3747Q241.747 21.6799 243.346 22.6442Q244.957 23.5964 246.019 25.5373Q247.093 27.466 247.093 30.7131L247.093 48.6818L242.894 48.6818L242.894 44.9831L242.687 44.9831Q242.259 45.8742 241.258 46.8874Q240.27 47.9006 238.622 48.6086Q236.974 49.3166 234.593 49.3166ZM344.82 27.5148L341.048 28.5768Q340.499 27.1608 339.205 25.9157Q337.911 24.6706 335.152 24.6706Q332.649 24.6706 330.989 25.818Q329.329 26.9655 329.329 28.7233Q329.329 30.2858 330.464 31.1891Q331.612 32.0925 334.017 32.7028L338.069 33.6916Q345.308 35.4738 345.308 41.0768Q345.308 43.4206 343.965 45.2761Q342.635 47.1193 340.23 48.1935Q337.837 49.2555 334.664 49.2555Q330.489 49.2555 327.754 47.4489Q325.02 45.6301 324.288 42.1511L328.267 41.1501Q329.39 45.5568 334.59 45.5568Q337.52 45.5568 339.253 44.3117Q340.987 43.0544 340.987 41.2966Q340.987 38.4035 336.934 37.4636L332.393 36.3893Q328.646 35.5104 326.888 33.6428Q325.142 31.7629 325.142 28.943Q325.142 26.6237 326.448 24.8537Q327.754 23.0837 330.013 22.0705Q332.283 21.0573 335.152 21.0573Q339.205 21.0573 341.524 22.8395Q343.843 24.6096 344.82 27.5148ZM356.235 47.4977Q359.018 49.2555 362.717 49.2555Q366.403 49.2555 369.186 47.4977Q371.969 45.7399 373.52 42.5783Q375.07 39.4167 375.07 35.193Q375.07 30.9206 373.52 27.7468Q371.969 24.5729 369.186 22.8151Q366.403 21.0573 362.717 21.0573Q359.018 21.0573 356.235 22.8151Q353.464 24.5729 351.901 27.7468Q350.351 30.9206 350.351 35.193Q350.351 39.4167 351.901 42.5783Q353.464 45.7399 356.235 47.4977ZM172.726 48.6818L172.726 21.4113L176.913 21.4113L176.913 48.6818L172.726 48.6818ZM298.013 48.6818L293.753 48.6818L283.67 21.4113L288.211 21.4113L295.743 43.1398L296.024 43.1398L303.555 21.4113L308.096 21.4113L298.013 48.6818ZM317.822 21.4113L313.635 21.4113L313.635 48.6818L317.822 48.6818L317.822 21.4113ZM400.864 58.7404Q401.706 58.9113 402.768 58.9113Q408.469 58.9113 410.8 52.6613L422.372 21.4113L417.831 21.4113L410.3 43.1398L410.019 43.1398L402.487 21.4113L397.946 21.4113L408.029 48.8283L407.248 50.9523Q406.479 53.0275 405.563 53.9553Q404.648 54.8952 403.476 55.0051Q402.304 55.1149 400.778 54.7243L399.716 58.4108Q400.034 58.5695 400.864 58.7404ZM116.067 32.8493L131.607 32.8493Q131.607 29.3825 129.58 27.0998Q127.554 24.8171 124.148 24.8171Q121.756 24.8171 119.998 25.9401Q118.24 27.051 117.227 28.8942Q116.214 30.7253 116.067 32.8493ZM158.919 41.9313Q156.905 44.4948 153.121 44.4948Q149.178 44.4948 147.176 41.7971Q145.174 39.0993 145.174 34.8268Q145.174 32.068 146.053 29.7975Q146.932 27.5148 148.69 26.1721Q150.46 24.8171 153.121 24.8171Q156.966 24.8171 158.944 27.6125Q160.934 30.4079 160.934 34.8268Q160.934 39.3556 158.919 41.9313ZM271.42 42.5905Q269.406 45.4836 265.621 45.4836Q262.997 45.4836 261.227 44.092Q259.469 42.7004 258.566 40.3322Q257.675 37.9518 257.675 35.0466Q257.675 32.1657 258.554 29.8586Q259.432 27.5392 261.19 26.1843Q262.96 24.8171 265.621 24.8171Q269.467 24.8171 271.444 27.6491Q273.434 30.4689 273.434 35.0466Q273.434 39.6852 271.42 42.5905ZM367.331 44.0554Q365.524 45.4836 362.717 45.4836Q359.909 45.4836 358.09 44.0554Q356.283 42.6149 355.417 40.2712Q354.55 37.9274 354.55 35.193Q354.55 32.4587 355.417 30.1027Q356.283 27.7346 358.09 26.2819Q359.909 24.8171 362.717 24.8171Q365.524 24.8171 367.331 26.2819Q369.137 27.7346 370.004 30.1027Q370.883 32.4587 370.883 35.193Q370.883 37.9274 370.004 40.2712Q369.137 42.6149 367.331 44.0554ZM75.4264 45.5568Q77.9166 45.5568 79.6256 44.5803Q81.3346 43.6037 82.2135 42.0656Q83.0924 40.5153 83.0924 38.8063L83.0924 34.9733Q82.836 35.2907 81.9327 35.5471Q81.0416 35.8034 79.8697 35.9987Q78.7101 36.1818 77.6114 36.3161Q76.525 36.4504 75.8536 36.5358Q74.2179 36.7555 72.8018 37.2316Q71.398 37.6955 70.5313 38.6232Q69.6768 39.551 69.6768 41.1501Q69.6768 43.3351 71.3004 44.446Q72.9239 45.5568 75.4264 45.5568ZM235.228 45.5568Q237.718 45.5568 239.427 44.5803Q241.136 43.6037 242.015 42.0656Q242.894 40.5153 242.894 38.8063L242.894 34.9733Q242.638 35.2907 241.734 35.5471Q240.843 35.8034 239.671 35.9987Q238.512 36.1818 237.413 36.3161Q236.327 36.4504 235.655 36.5358Q234.02 36.7555 232.604 37.2316Q231.2 37.6955 230.333 38.6232Q229.479 39.551 229.479 41.1501Q229.479 43.3351 231.102 44.446Q232.726 45.5568 235.228 45.5568Z" />
  </g>
</svg>